<svg xmlns="http://www.w3.org/2000/svg" viewBox="0 0 24 24" fill="none" stroke="currentColor" stroke-width="1.5" stroke-linecap="round" stroke-linejoin="round">
  <path data-element="wire-1" d="M19 5l3-3"/>
  <path data-element="wire-2" d="M2 22l3-3"/>
  <path data-element="socket" d="M6.3 20.3a2.4 2.4 0 0 0 3.4 0L12 18l-6-6-2.3 2.3a2.4 2.4 0 0 0 0 3.4Z"/>
  <path data-element="pin-1" d="M7.5 13.5L10 11"/>
  <path data-element="pin-2" d="M10.5 16.5L13 14"/>
  <path data-element="plug" d="m12 6 6 6 2.3-2.3a2.4 2.4 0 0 0 0-3.4l-2.6-2.6a2.4 2.4 0 0 0-3.4 0Z"/>
</svg>
